<svg width="32" height="32" viewBox="0 0 32 32" fill="none" xmlns="http://www.w3.org/2000/svg">
<path d="M15.9882 18.4521C13.8274 18.4521 12.099 17.4135 10.8068 16.1851C9.65384 15.0889 8.89198 13.881 8.54082 13.2581L8.5337 13.2449C8.41579 13.026 8.15159 12.939 7.93095 13.0464L7.58158 13.2163L7.25381 13.3785C7.02474 13.4919 6.93063 13.7725 7.0556 13.9992C7.06687 14.0196 7.07857 14.0407 7.09069 14.0624C7.39842 14.6129 7.99608 15.5827 8.88254 16.5873L7.54475 17.9557C7.36443 18.1401 7.36443 18.4392 7.54475 18.6236L8.05783 19.1484C8.23816 19.3329 8.53052 19.3329 8.71084 19.1484L10.0627 17.7657C10.7397 18.3569 11.5318 18.9126 12.4368 19.3374L11.7739 21.0892C11.6818 21.3324 11.8 21.6059 12.0378 21.7001L12.7145 21.968C12.9523 22.0622 13.2197 21.9413 13.3118 21.6981L13.9944 19.8943C14.6179 20.0502 15.2826 20.1389 15.9882 20.1389C16.6937 20.1389 17.3585 20.0502 17.982 19.8943L18.6646 21.6981C18.7566 21.9413 19.0241 22.0622 19.2619 21.968L19.9386 21.7001C20.1764 21.6059 20.2945 21.3324 20.2025 21.0892L19.5395 19.3374C20.4447 18.9125 21.2368 18.3568 21.9137 17.7657L23.2655 19.1484C23.4459 19.3329 23.7382 19.3329 23.9185 19.1484L24.4316 18.6236C24.6119 18.4392 24.6119 18.1401 24.4316 17.9557L23.0938 16.5873C24.0514 15.5022 24.6715 14.4581 24.9531 13.9402C25.0593 13.7449 24.9781 13.5038 24.7813 13.4068L24.3948 13.2163L24.0467 13.0462C23.8291 12.9399 23.5682 13.0227 23.4477 13.2364L23.407 13.3085C23.035 13.9603 22.2574 15.1714 21.0938 16.2563C19.8098 17.4536 18.1071 18.4521 15.9882 18.4521Z" fill="#EBEDF0"/>
</svg>
