<svg width="32" height="32" viewBox="0 0 32 32" fill="none" xmlns="http://www.w3.org/2000/svg">
<path d="M15.9999 18.7793C17.5349 18.7793 18.7792 17.535 18.7792 16C18.7792 15.6857 18.4175 15.5424 18.1094 15.6047C18.0014 15.6266 17.8896 15.638 17.7752 15.638C16.8491 15.638 16.0983 14.8873 16.0983 13.9612C16.0983 13.7938 16.1229 13.6321 16.1685 13.4796C16.2053 13.3567 16.1282 13.2206 15.9999 13.2206C14.4649 13.2206 13.2205 14.465 13.2205 16C13.2205 17.535 14.4649 18.7793 15.9999 18.7793Z" fill="#EBEDF0"/>
<path fill-rule="evenodd" clip-rule="evenodd" d="M24.7699 16.8049C25.0752 16.3068 25.0773 15.6924 24.7745 15.1928C23.7169 13.4478 20.7859 9.48016 15.9999 9.48016C11.2138 9.48016 8.28287 13.4478 7.22525 15.1928C6.92245 15.6924 6.92457 16.3068 7.22984 16.8049C8.29855 18.5486 11.2534 22.5199 15.9999 22.5199C20.7463 22.5199 23.7012 18.5486 24.7699 16.8049ZM15.9999 20.3912C18.4251 20.3912 20.3911 18.4252 20.3911 16C20.3911 13.5748 18.4251 11.6088 15.9999 11.6088C13.5747 11.6088 11.6087 13.5748 11.6087 16C11.6087 18.4252 13.5747 20.3912 15.9999 20.3912Z" fill="#EBEDF0"/>
</svg>
