<svg width="32" height="32" viewBox="0 0 32 32" fill="none" xmlns="http://www.w3.org/2000/svg">
<path fill-rule="evenodd" clip-rule="evenodd" d="M11.3725 10.1572C11.0991 9.88381 10.6559 9.88381 10.3826 10.1572L10.1572 10.3826C9.88381 10.6559 9.88381 11.0991 10.1572 11.3725L14.7848 16.0001L10.1572 20.6277C9.88384 20.9011 9.88384 21.3443 10.1572 21.6176L10.3826 21.843C10.656 22.1164 11.0992 22.1164 11.3725 21.843L16.0001 17.2155L20.6277 21.8431C20.9011 22.1164 21.3443 22.1164 21.6176 21.8431L21.843 21.6177C22.1164 21.3443 22.1164 20.9011 21.843 20.6277L17.2155 16.0001L21.8431 11.3725C22.1165 11.0991 22.1165 10.6559 21.8431 10.3826L21.6177 10.1572C21.3444 9.88381 20.9011 9.88381 20.6278 10.1572L16.0001 14.7848L11.3725 10.1572Z" fill="#EBEDF0"/>
</svg>
